<svg width="14" height="14" viewBox="0 0 14 14" fill="none" xmlns="http://www.w3.org/2000/svg">
<g clip-path="url(#clip0_1_83)">
<path d="M12.7455 0.133911H1.23627C0.684944 0.133911 0.239136 0.569168 0.239136 1.1073V12.664C0.239136 13.2022 0.684944 13.6401 1.23627 13.6401H12.7455C13.2968 13.6401 13.7453 13.2022 13.7453 12.6667V1.1073C13.7453 0.569168 13.2968 0.133911 12.7455 0.133911ZM4.24613 11.6431H2.24132V5.19608H4.24613V11.6431ZM3.24373 4.31765C2.60007 4.31765 2.0804 3.79798 2.0804 3.15697C2.0804 2.51595 2.60007 1.99628 3.24373 1.99628C3.88474 1.99628 4.40441 2.51595 4.40441 3.15697C4.40441 3.79534 3.88474 4.31765 3.24373 4.31765ZM11.7484 11.6431H9.74619V8.5093C9.74619 7.76277 9.733 6.79993 8.70422 6.79993C7.66224 6.79993 7.50396 7.61505 7.50396 8.45654V11.6431H5.50442V5.19608H7.42483V6.07714H7.4512C7.71763 5.57066 8.37184 5.03516 9.34523 5.03516C11.3738 5.03516 11.7484 6.36995 11.7484 8.1057V11.6431Z" fill="#243054"/>
</g>
<defs>
<clipPath id="clip0_1_83">
<rect width="13.5061" height="13.5061" fill="white" transform="translate(0.239136 0.133911)"/>
</clipPath>
</defs>
</svg>
