<svg width="14" height="14" viewBox="0 0 14 14" fill="none" xmlns="http://www.w3.org/2000/svg">
<g clip-path="url(#clip0_1_76)">
<path d="M4.45519 12.3739C9.5506 12.3739 12.3383 8.15141 12.3383 4.49077C12.3383 4.37206 12.3357 4.25072 12.3304 4.13201C12.8727 3.73983 13.3407 3.25405 13.7124 2.69751C13.2074 2.92222 12.6711 3.06898 12.122 3.13277C12.7002 2.78621 13.1331 2.24178 13.3405 1.6004C12.7966 1.92274 12.2018 2.15013 11.5815 2.27281C11.1636 1.82877 10.6111 1.53476 10.0093 1.43624C9.40757 1.33772 8.79012 1.44018 8.25244 1.72777C7.71475 2.01536 7.28678 2.47208 7.03469 3.0273C6.78261 3.58251 6.72044 4.20531 6.85781 4.79941C5.75647 4.74414 4.67905 4.45804 3.69538 3.95966C2.7117 3.46128 1.84375 2.76174 1.14777 1.9064C0.794041 2.51627 0.685799 3.23795 0.845044 3.92477C1.00429 4.61158 1.41907 5.21199 2.0051 5.60397C1.56515 5.59 1.13483 5.47155 0.74971 5.2584V5.2927C0.749316 5.93271 0.970576 6.55312 1.37588 7.04844C1.78118 7.54377 2.34552 7.88346 2.97295 8.00975C2.5654 8.12126 2.13767 8.1375 1.72284 8.05723C1.89989 8.60765 2.24436 9.08906 2.70818 9.43428C3.172 9.7795 3.73203 9.9713 4.31011 9.98291C3.32871 10.7538 2.11639 11.172 0.868416 11.17C0.647098 11.1696 0.425998 11.1561 0.206299 11.1294C1.47411 11.9427 2.94891 12.3747 4.45519 12.3739Z" fill="#243054"/>
</g>
<defs>
<clipPath id="clip0_1_76">
<rect width="13.5061" height="13.5061" fill="white" transform="translate(0.206299 0.133911)"/>
</clipPath>
</defs>
</svg>
